<svg width="20" height="21" viewBox="0 0 20 21" fill="none" xmlns="http://www.w3.org/2000/svg">
<g clip-path="url(#clip0_2_76)">
<path d="M12.9167 12.1178H12.2583L12.025 11.8928C12.8417 10.9428 13.3333 9.70951 13.3333 8.36784C13.3333 5.37617 10.9083 2.95117 7.91667 2.95117C4.925 2.95117 2.5 5.37617 2.5 8.36784C2.5 11.3595 4.925 13.7845 7.91667 13.7845C9.25833 13.7845 10.4917 13.2928 11.4417 12.4762L11.6667 12.7095V13.3678L15.8333 17.5262L17.075 16.2845L12.9167 12.1178ZM7.91667 12.1178C5.84167 12.1178 4.16667 10.4428 4.16667 8.36784C4.16667 6.29284 5.84167 4.61784 7.91667 4.61784C9.99167 4.61784 11.6667 6.29284 11.6667 8.36784C11.6667 10.4428 9.99167 12.1178 7.91667 12.1178Z" fill="#F9F9F9"/>
</g>
<defs>
<clipPath id="clip0_2_76">
<rect width="20" height="20" fill="white" transform="translate(0 0.451172)"/>
</clipPath>
</defs>
</svg>
